{
  "asset": {
    "generator": "Khronos Blender glTF 2.0 I/O",
    "version": "2.0"
  },
  "scene": 0,
  "scenes": [
    {
      "name": "Scene",
      "nodes": [
        0
      ]
    }
  ],
  "nodes": [
    {
      "mesh": 0,
      "name": "Cube.008"
    }
  ],
  "materials": [
    {
      "name": "Default OBJ.005",
      "normalTexture": {
        "index": 0,
        "texCoord": 0
      },
      "pbrMetallicRoughness": {
        "baseColorTexture": {
          "index": 1,
          "texCoord": 0
        },
        "metallicFactor": 0,
        "roughnessFactor": 0.89999997615814209
      }
    }
  ],
  "meshes": [
    {
      "name": "Cube.001",
      "primitives": [
        {
          "attributes": {
            "POSITION": 0,
            "NORMAL": 1,
            "TEXCOORD_0": 2
          },
          "indices": 3,
          "material": 0
        }
      ]
    }
  ],
  "textures": [
    {
      "source": 0
    },
    {
      "source": 1
    }
  ],
  "images": [
    {
      "name": "mars_norm.jpg",
      "uri": "Mars_1_image0.png"
    },
    {
      "name": "mars_diff.jpg",
      "uri": "Mars_1_image1.png"
    }
  ],
  "accessors": [
    {
      "bufferView": 0,
      "componentType": 5126,
      "count": 2034,
      "max": [
        500.00003051757812,
        497.05557250976562,
        500.00003051757812
      ],
      "min": [
        -500.00003051757812,
        -497.05557250976562,
        -500.00003051757812
      ],
      "type": "VEC3"
    },
    {
      "bufferView": 1,
      "componentType": 5126,
      "count": 2034,
      "type": "VEC3"
    },
    {
      "bufferView": 2,
      "componentType": 5126,
      "count": 2034,
      "type": "VEC2"
    },
    {
      "bufferView": 3,
      "componentType": 5123,
      "count": 9216,
      "type": "SCALAR"
    }
  ],
  "bufferViews": [
    {
      "buffer": 0,
      "byteLength": 24408,
      "byteOffset": 0
    },
    {
      "buffer": 0,
      "byteLength": 24408,
      "byteOffset": 24408
    },
    {
      "buffer": 0,
      "byteLength": 16272,
      "byteOffset": 48816
    },
    {
      "buffer": 0,
      "byteLength": 18432,
      "byteOffset": 65088
    }
  ],
  "buffers": [
    {
      "byteLength": 83520,
      "uri": "Mars_1.bin"
    }
  ]
}