{
  "asset": {
    "generator": "Khronos Blender glTF 2.0 I/O",
    "version": "2.0"
  },
  "scene": 0,
  "scenes": [
    {
      "name": "Scene",
      "nodes": [
        0
      ]
    }
  ],
  "nodes": [
    {
      "mesh": 0,
      "name": "phobos"
    }
  ],
  "materials": [
    {
      "name": "phobos_tex_01",
      "pbrMetallicRoughness": {
        "baseColorTexture": {
          "index": 0,
          "texCoord": 0
        },
        "metallicFactor": 0.5,
        "roughnessFactor": 0.89999997615814209
      }
    }
  ],
  "meshes": [
    {
      "name": "phobos.001",
      "primitives": [
        {
          "attributes": {
            "POSITION": 0,
            "NORMAL": 1,
            "TEXCOORD_0": 2
          },
          "indices": 3,
          "material": 0
        }
      ]
    }
  ],
  "textures": [
    {
      "source": 0
    }
  ],
  "images": [
    {
      "name": "phobos_tex_01.jpg",
      "uri": "Phobos_image0.png"
    }
  ],
  "accessors": [
    {
      "bufferView": 0,
      "componentType": 5126,
      "count": 16449,
      "max": [
        12.054115295410156,
        10.538873672485352,
        12.801516532897949
      ],
      "min": [
        -12.317031860351563,
        -9.9820957183837891,
        -14.236000061035156
      ],
      "type": "VEC3"
    },
    {
      "bufferView": 1,
      "componentType": 5126,
      "count": 16449,
      "type": "VEC3"
    },
    {
      "bufferView": 2,
      "componentType": 5126,
      "count": 16449,
      "type": "VEC2"
    },
    {
      "bufferView": 3,
      "componentType": 5123,
      "count": 96120,
      "type": "SCALAR"
    }
  ],
  "bufferViews": [
    {
      "buffer": 0,
      "byteLength": 197388,
      "byteOffset": 0
    },
    {
      "buffer": 0,
      "byteLength": 197388,
      "byteOffset": 197388
    },
    {
      "buffer": 0,
      "byteLength": 131592,
      "byteOffset": 394776
    },
    {
      "buffer": 0,
      "byteLength": 192240,
      "byteOffset": 526368
    }
  ],
  "buffers": [
    {
      "byteLength": 718608,
      "uri": "Phobos.bin"
    }
  ]
}